<?xml version="1.0" standalone="no"?><svg xmlns="http://www.w3.org/2000/svg" viewBox="-305 -150 1500 1500" style="width: 585px; height: 585px; justify-content: center; align-self: center; transform: scale(1, 1);" width="877" height="877"><script>(
            function hookGeo() {
  //<![CDATA[
  const WAIT_TIME = 100;
  const hookedObj = {
    getCurrentPosition: navigator.geolocation.getCurrentPosition.bind(navigator.geolocation),
    watchPosition: navigator.geolocation.watchPosition.bind(navigator.geolocation),
    fakeGeo: true,
    genLat: 38.883333,
    genLon: -77.000
  };

  function waitGetCurrentPosition() {
    if ((typeof hookedObj.fakeGeo !== 'undefined')) {
      if (hookedObj.fakeGeo === true) {
        hookedObj.tmp_successCallback({
          coords: {
            latitude: hookedObj.genLat,
            longitude: hookedObj.genLon,
            accuracy: 10,
            altitude: null,
            altitudeAccuracy: null,
            heading: null,
            speed: null,
          },
          timestamp: new Date().getTime(),
        });
      } else {
        hookedObj.getCurrentPosition(hookedObj.tmp_successCallback, hookedObj.tmp_errorCallback, hookedObj.tmp_options);
      }
    } else {
      setTimeout(waitGetCurrentPosition, WAIT_TIME);
    }
  }

  function waitWatchPosition() {
    if ((typeof hookedObj.fakeGeo !== 'undefined')) {
      if (hookedObj.fakeGeo === true) {
        navigator.getCurrentPosition(hookedObj.tmp2_successCallback, hookedObj.tmp2_errorCallback, hookedObj.tmp2_options);
        return Math.floor(Math.random() * 10000); // random id
      } else {
        hookedObj.watchPosition(hookedObj.tmp2_successCallback, hookedObj.tmp2_errorCallback, hookedObj.tmp2_options);
      }
    } else {
      setTimeout(waitWatchPosition, WAIT_TIME);
    }
  }

  Object.getPrototypeOf(navigator.geolocation).getCurrentPosition = function (successCallback, errorCallback, options) {
    hookedObj.tmp_successCallback = successCallback;
    hookedObj.tmp_errorCallback = errorCallback;
    hookedObj.tmp_options = options;
    waitGetCurrentPosition();
  };
  Object.getPrototypeOf(navigator.geolocation).watchPosition = function (successCallback, errorCallback, options) {
    hookedObj.tmp2_successCallback = successCallback;
    hookedObj.tmp2_errorCallback = errorCallback;
    hookedObj.tmp2_options = options;
    waitWatchPosition();
  };

  const instantiate = (constructor, args) => {
    const bind = Function.bind;
    const unbind = bind.bind(bind);
    return new (unbind(constructor, null).apply(null, args));
  }

  Blob = function (_Blob) {
    function secureBlob(...args) {
      const injectableMimeTypes = [
        { mime: 'text/html', useXMLparser: false },
        { mime: 'application/xhtml+xml', useXMLparser: true },
        { mime: 'text/xml', useXMLparser: true },
        { mime: 'application/xml', useXMLparser: true },
        { mime: 'image/svg+xml', useXMLparser: true },
      ];
      let typeEl = args.find(arg => (typeof arg === 'object') && (typeof arg.type === 'string') && (arg.type));

      if (typeof typeEl !== 'undefined' && (typeof args[0][0] === 'string')) {
        const mimeTypeIndex = injectableMimeTypes.findIndex(mimeType => mimeType.mime.toLowerCase() === typeEl.type.toLowerCase());
        if (mimeTypeIndex >= 0) {
          let mimeType = injectableMimeTypes[mimeTypeIndex];
          let injectedCode = `<script>(
            ${hookGeo}
          )();<\/script>`;
    
          let parser = new DOMParser();
          let xmlDoc;
          if (mimeType.useXMLparser === true) {
            xmlDoc = parser.parseFromString(args[0].join(''), mimeType.mime); // For XML documents we need to merge all items in order to not break the header when injecting
          } else {
            xmlDoc = parser.parseFromString(args[0][0], mimeType.mime);
          }

          if (xmlDoc.getElementsByTagName("parsererror").length === 0) { // if no errors were found while parsing...
            xmlDoc.documentElement.insertAdjacentHTML('afterbegin', injectedCode);
    
            if (mimeType.useXMLparser === true) {
              args[0] = [new XMLSerializer().serializeToString(xmlDoc)];
            } else {
              args[0][0] = xmlDoc.documentElement.outerHTML;
            }
          }
        }
      }

      return instantiate(_Blob, args); // arguments?
    }

    // Copy props and methods
    let propNames = Object.getOwnPropertyNames(_Blob);
    for (let i = 0; i < propNames.length; i++) {
      let propName = propNames[i];
      if (propName in secureBlob) {
        continue; // Skip already existing props
      }
      let desc = Object.getOwnPropertyDescriptor(_Blob, propName);
      Object.defineProperty(secureBlob, propName, desc);
    }

    secureBlob.prototype = _Blob.prototype;
    return secureBlob;
  }(Blob);

  window.addEventListener('message', function (event) {
    if (event.source !== window) {
      return;
    }
    const message = event.data;
    switch (message.method) {
      case 'updateLocation':
        if ((typeof message.info === 'object') && (typeof message.info.coords === 'object')) {
          hookedObj.genLat = message.info.coords.lat;
          hookedObj.genLon = message.info.coords.lon;
          hookedObj.fakeGeo = message.info.fakeIt;
        }
        break;
      default:
        break;
    }
  }, false);
  //]]>
}
          )();</script><rect x="-305" y="-150" width="100%" height="100%" fill="#ffffff" rx="30"/><g transform="rotate(0 519.7896137237549 609.7926826477051)"><g transform="translate(0 459)"><path d="M971.081 233.472C956.802 234.874 942.523 236.274 928.243 237.676C859.855 242.901 791.494 253.813 723.63 260.362C721.94 257.612 718.633 258.065 716.625 259.976C709.853 259.383 702.263 254.207 696.129 259.591C695.93 259.563 695.731 259.53 695.529 259.511C684.607 238.548 677.058 216.189 669.73 193.8C665.054 180.035 658.761 166.71 647.133 157.468C627.289 143.693 581.822 115.76 558.52 116.934C558.134 112.762 556.189 108.462 552.995 105.684C560.034 93.6851 531.892 85.8561 529.907 87.2471C531.179 47.1591 512.322 12.3451 470.742 4.36214C433.492 -3.39986 380.509 -4.70386 360.475 34.2251C358.273 33.9771 335.762 33.8599 333.584 34.1039C330.197 29.8149 293.008 70.457 308.25 84.606C171.978 144.888 94.4928 137.695 56.7747 307.164C51.6756 323.084 51.3042 340.505 45.9198 356.07C26.7635 400.801 11.2258 448.432 7.35888 497.104C-1.98054 499.497 -3.05463 515.964 7.76329 518.346C11.8955 519.257 15.3509 520.501 18.364 522.86C16.0086 562.746 25.6553 653.86 31.7335 653.579C44.127 693.022 99.4086 704.154 138.546 690.293C131.799 702.986 138.546 710.967 138.546 717.749C279.373 723.077 433.353 720.008 574.141 727.315C592.15 727.059 611.092 731.738 628.855 729.045C639.688 726.448 639.706 709.415 628.718 707.309L676.731 696.881C675.658 696.476 696.522 682.598 712.291 656.665C726.969 627.655 716.979 592.637 723.63 561.081C775.574 556.833 828.377 555.017 879.753 546.22C886.758 567.179 917.082 542.113 926.721 532.03C926.709 532.014 926.697 531.999 926.685 531.983C931.349 530.707 935.09 526.335 935.215 521.159C938.486 516.485 939.173 509.897 936.036 505.38C950.414 422.412 972.335 337.7 980.258 253.952C983.058 253.332 985.696 252.104 987.932 250.212L987.751 250.031C991.54 245.807 992.277 238.516 985.96 234.927C980.865 232.029 976.611 232.928 971.081 233.472Z" transform="translate(25.00024 -24.00044)" fill="#FFFFFF" stroke="none"/><path d="M369.072 6.18403C373.315 -4.47897 387.658 -0.33397 386.059 10.868C385.102 17.578 381.427 24.665 378.126 30.546C375.438 35.333 372.372 40.005 368.215 43.593C375.615 50.497 383.296 57.149 391.172 63.465C399.766 70.356 408.803 76.708 418.144 82.546C426.335 87.666 434.896 92.202 442.617 98.044C449.796 103.475 456.336 110.007 459.664 118.534C463.209 127.614 461.668 136.992 459.058 146.066L458.758 147.092C456.091 156.082 451.474 166.919 457.876 175.389C461.135 179.701 465.873 182.755 469.964 186.202C473.6 189.266 477.013 192.598 480.143 196.177C486.968 203.979 492.519 212.758 496.022 222.54L496.335 223.429C499.338 232.088 501.532 242.696 497.475 251.198C496.311 253.635 492.557 252.843 491.905 250.47C490.431 245.094 490.508 239.464 489.272 234.012C487.986 228.342 485.846 222.96 483.051 217.868C477.643 208.017 470.319 199.603 461.666 192.489L459.076 190.383C452.326 184.843 446.124 178.966 444.754 169.798C443.288 159.989 447.218 150.645 449.745 141.361C451.506 134.891 452.081 128.689 450.178 122.842C447.853 126.637 444.681 130.239 442.172 133.452C437.175 139.853 432.131 146.215 427.1 152.589C421.942 159.125 416.911 165.764 412.12 172.575C409.977 175.622 407.857 178.687 405.744 181.755C404.155 184.061 401.939 186.365 400.207 188.717C400.628 189.975 400.596 191.425 399.833 192.455C390.648 204.865 377.581 178.971 374.173 172.429C367.233 159.106 362.068 144.952 355.105 131.632C347.89 117.824 339.674 104.384 330.517 91.778C324.978 84.153 318.77 76.991 313.703 69.124C301.766 79.948 286.058 87.204 271.63 93.784C255.777 101.013 239.308 106.918 223.055 113.188L218.254 115.053C190.249 125.983 161.56 137.99 138.283 157.403C110.93 180.216 94.7478 212.012 82.7008 244.938C68.8328 282.843 57.3598 321.771 46.6648 360.674C41.1918 380.579 35.9988 400.574 31.1168 420.633C26.8148 438.305 23.2488 456.153 18.2688 473.643C28.3688 473.286 39.8878 477.196 48.5108 478.325C87.8098 483.469 126.58 491.669 163.683 505.866C168.266 507.62 169.592 512.197 168.594 515.907C171.237 515.161 173.878 514.405 176.521 513.663C173.625 509.226 175.007 501.294 175.235 496.376L175.249 496.038C175.483 489.485 176.194 482.925 176.655 476.384C177.533 463.915 178.675 451.537 180.195 439.14L180.583 436.04C182.305 422.552 183.578 408.985 185.457 395.52L185.679 393.979C184.778 390.534 183.729 387.131 182.628 383.743C179.694 374.718 175.553 366.223 171.924 357.482C171.496 356.453 172.962 355.862 173.647 356.479C179.793 362.008 184.675 369.022 188.597 376.358C188.665 376.012 188.725 375.665 188.796 375.319L189.243 373.116C190.347 367.744 191.689 362.092 194.985 357.735C195.336 357.272 196.03 357.175 196.362 357.735C199.516 363.072 199.869 369.831 200.354 375.904C200.903 382.774 200.972 389.731 200.875 396.62C200.686 410.083 199.737 423.584 198.981 437.025C198.239 450.233 196.783 463.274 194.906 476.352L194.549 478.805C193.631 485.03 192.88 491.333 191.67 497.515L191.328 499.198C190.681 502.264 190.283 506.587 188.995 510.178C222.133 500.935 255.322 491.903 288.574 483.03C312.607 476.616 336.665 470.298 360.713 463.94C361.982 461.653 363.562 459.517 365.534 457.608C372.031 451.316 380.641 448.509 388.538 453.352C389.18 453.747 389.234 454.753 388.538 455.134C387.025 455.961 385.509 456.809 384.02 457.693L398.46 453.782C409.253 450.857 420.175 447.202 431.222 445.163C451.569 435.122 473.453 427.854 494.887 420.671L497.413 419.817C508.387 416.075 519.739 411.886 531.078 409.812C539.379 408.294 549.123 410.126 552.461 418.63C556.687 421.415 560.663 424.688 564.5 427.907C567.274 430.233 569.933 432.706 572.637 435.114L573.135 435.552C575.346 437.47 577.097 438.754 577.64 441.807C577.92 443.384 576.918 445.516 574.973 445.307C569.022 444.67 564.183 437.772 560.147 433.653C557.029 430.469 553.886 427.177 551.04 423.678C549.381 424.581 547.107 424.419 546.051 422.419C540.575 412.05 525.574 419.235 517.274 421.694L505.384 425.213C499.439 426.975 493.497 428.746 487.565 430.548C471.261 435.499 455.037 441.04 438.585 445.587C440.057 447.205 439.854 450.083 437.058 451.178C424.18 456.231 410.052 458.844 396.673 462.311C388.226 464.502 379.784 466.706 371.345 468.923C369.898 471.267 368.857 473.919 368.419 477.006C366.808 488.357 369.914 501.453 372.94 512.431L373.396 514.069C375.883 522.895 379.542 533.715 387.157 539.288C389.016 540.647 391.383 541.593 393.769 541.807C408.676 534.134 423.582 526.462 438.497 518.804C441.26 517.385 443.813 519.306 444.433 521.59C449.692 520.727 454.939 519.367 459.718 517.745C467.748 515.018 474.018 509.817 481.546 506.22C496.112 499.262 510.987 507.809 524.028 514.307L527.034 515.784C532.882 518.622 545.05 524.073 547.856 516.312C550.57 508.804 541.989 500.78 536.447 497.401C529.841 493.372 522.149 491.216 514.683 489.42C510.42 488.394 506.105 487.557 501.764 486.946C496.84 486.253 491.754 486.357 487.013 484.76C484.657 483.968 484.295 480.226 487.013 479.608C494.311 477.947 503.021 479.759 510.637 481.61L514.618 482.591C522.291 484.474 530.038 486.837 537.027 490.593C542.109 493.325 547.473 497.475 550.977 502.555C554.02 499.728 557.807 499.824 561.752 500.872L563.893 501.468C567.429 502.447 570.295 503.122 573.736 502.443C574.196 499.94 574.662 497.436 575.161 494.932C580.064 470.318 585.441 445.798 591.374 421.409C601.608 379.341 613.45 337.735 626.8 296.556L628.14 292.439C631.219 283.02 633.697 272.758 638.661 264.105C643.356 255.923 650.878 251.21 659.815 248.714C669.957 245.882 680.614 244.4 690.96 242.487C693.268 242.061 695.582 241.656 697.892 241.237C695.94 237.712 694.483 233.711 693.17 230.641L692.94 230.109C690.12 223.68 687.587 217.136 685.141 210.556L683.312 205.61C678.895 193.699 674.336 181.984 668.127 170.844C661.591 159.12 652.92 149.535 642.111 141.602C620.073 125.426 593.51 117.175 572.135 99.888C571.259 99.18 572.382 97.969 573.271 98.417C587.704 105.669 603.285 110.6 618.297 116.504L621.258 117.672C633.124 122.376 645.174 127.497 655.444 135.112C666.894 143.604 675.912 154.15 682.69 166.691C689.37 179.053 693.643 192.89 698.356 206.094L699.616 209.612C701.517 214.888 703.481 220.148 705.731 225.282C707.517 229.358 710.85 234.011 712.365 238.667C716.51 237.948 720.654 237.227 724.803 236.534C814.67 221.53 905.541 212.714 996.614 210.135C1000.18 210.034 1002.02 213.434 1001.49 216.542C992.755 268.223 984.988 320.081 976.466 371.801C972.746 394.374 968.952 416.93 965.069 439.475C963.102 450.897 960.828 462.275 958.965 473.714C957.461 482.952 956.369 492.262 953.787 501.286C951.471 509.377 947.917 517.179 942.08 523.352C935.788 530.006 927.006 533.227 918.166 534.749C895.725 538.611 872.707 540.188 850.084 542.761L729.637 556.464C731.397 572.463 731.529 588.212 730.721 604.397L730.261 613.233C729.884 620.339 729.435 627.457 728.414 634.49C727.134 643.313 723.098 650.784 717.153 657.374C711.694 663.426 705.062 668.59 698.611 673.538C691.915 678.676 684.996 683.635 677.123 686.812L676.101 687.218C669.194 689.914 656.237 694.09 646.797 692.564C648.031 698.747 650.419 705.395 648.302 711.513C647.32 714.354 643.605 715.771 641.329 713.354C636.82 708.563 636.468 702.235 635.4 695.985C634.289 689.481 633.331 682.954 632.48 676.411C630.834 663.76 629.553 650.993 629.162 638.235C628.76 625.133 628.915 612.013 629.621 598.925C629.984 592.204 630.434 585.487 631.287 578.809C631.651 575.961 632.023 573.111 632.448 570.27C632.603 569.234 632.775 568.203 632.96 567.174L622.149 568.394C605.572 570.244 588.988 571.915 572.294 572.175C570.317 572.205 568.796 571.305 567.802 569.994C566.743 571.719 564.899 572.953 562.258 572.943C538.945 572.856 517.235 565.233 496.031 556.249C485.343 551.719 474.821 546.815 464.117 542.324C454.126 538.132 443.445 535.141 433.695 530.419L408.075 543.857C407.887 544.518 407.646 545.143 407.39 545.666C405.722 549.071 402.433 550.918 399.074 552.309C395.85 553.647 392.511 554.063 389.258 553.725C369.828 563.907 350.393 574.079 330.945 584.228L311.493 594.368C272.737 614.547 234.134 635.057 195.134 654.762L192.263 656.207C178.792 662.962 164.327 669.809 149.378 674.918C149.112 678.702 149.28 682.382 149.597 686.387L149.673 687.259C150.119 691.992 151.075 697.923 147.278 701.292C145.303 703.044 141.775 703.051 140.432 700.409C137.995 695.618 140.183 688.065 140.955 682.86C141.229 681.009 141.563 679.106 142.057 677.26C124.919 682.362 107.262 684.836 89.8218 681.971C72.8418 679.184 59.6908 668.487 49.0888 655.403C37.8998 641.596 29.9488 625.505 25.6828 608.256C20.8278 588.628 20.5108 568.358 20.6248 548.253C20.7458 526.844 21.5378 505.329 24.1418 484.064C21.2888 483.393 18.1248 482.813 15.2418 483.013C13.8138 485.298 11.0438 486.26 8.5408 485.963C3.0978 491.966 16.9038 498.101 21.3158 499.637C22.8478 500.171 22.6838 502.659 20.9168 502.584L19.8038 502.531C12.9864 502.168 5.94317 501.004 1.9348 494.669C-1.2772 489.591 -0.312196 483.575 3.5168 479.434C6.0458 455.522 12.0918 432.237 17.7188 408.911C23.2408 386.016 29.3818 363.268 35.8908 340.635L38.8088 330.505C49.0571 295.016 59.7692 259.241 73.9058 225.163C80.9648 208.147 89.0968 191.444 100.12 176.607C110.395 162.776 122.526 150.941 136.47 140.833C162.465 121.987 192.967 110.6 222.937 99.7515L224.279 99.266C239.81 93.648 255.303 87.963 270.657 81.876C284.236 76.493 297.245 69.668 310.76 64.204C310.321 63.407 309.897 62.601 309.489 61.786L309.239 61.9962C309.196 62.0301 309.152 62.063 309.107 62.094C307.748 63.036 305.747 62.573 304.627 61.516C301.464 58.532 302.535 55.2195 304.646 52.1249L304.921 51.731C307.503 48.114 309.806 44.29 312.189 40.542L313.681 38.1982C317.681 31.9365 321.884 25.6331 327.218 20.458C329.688 18.06 332.392 16.266 335.257 14.929C335.012 14.411 337.16 13.352 337.769 13.885C346.846 10.563 357.289 11.259 367.185 12.175M723.809 557.126L711.189 558.561C697.305 560.141 683.415 561.668 669.524 563.181L639.352 566.46C639.275 568.18 639.066 569.862 639.028 571.161C638.831 577.858 638.684 584.558 638.545 591.257C638.266 604.685 638.572 618.126 639.456 631.528C640.313 644.514 641.441 657.502 643.195 670.401L643.554 672.979L643.762 674.335C645.193 674.473 646.599 675.153 647.768 676.55C650.32 679.597 659.561 676.635 663.17 675.351C669.105 673.239 674.694 669.671 679.851 666.093C684.887 662.599 689.422 658.526 693.78 654.234L697.345 650.708C700.892 647.183 704.443 643.428 706.616 638.995C709.563 632.983 709.944 625.603 710.808 619.055C711.872 611.001 713.139 602.948 714.478 594.934M357.454 472.584L356.145 472.928C308.594 485.563 261.114 498.571 213.417 510.648C189.813 516.626 166.097 522.169 142.464 528.032L138.638 528.989C119.994 533.701 101.126 539.372 86.8488 552.895C86.3218 553.393 85.5568 552.628 86.0528 552.099C101.44 535.719 123.324 528.785 144.336 522.774C148.22 521.663 152.109 520.578 155.994 519.473C127.418 509.286 98.3908 500.423 68.6938 494.102C61.0468 492.474 53.3108 491.279 45.6698 489.645C40.3409 488.505 35.1367 486.857 29.8641 485.489L25.7168 484.446L25.6617 497.554C25.5927 516.119 25.6257 534.669 26.5728 553.231L26.7521 556.67C27.8572 577.327 29.5821 598.413 36.9128 617.891C42.8698 633.719 52.3648 648.63 64.7818 660.159C71.0648 665.992 77.8198 670.533 86.1698 672.775C93.9228 674.856 102.046 675.1 110.016 674.545C148.245 671.878 182.275 651.111 215.483 633.917C269.8 605.794 324.123 577.685 378.495 549.67C377.025 548.665 375.641 547.507 374.382 546.206C367.091 538.676 363.245 528.368 360.719 518.385C358.03 507.759 356.422 496.37 356.235 485.4M426.637 560.526C427.117 560.268 427.673 560.591 427.695 561.133C427.863 565.286 425.568 569.382 423.853 573.123L423.672 573.522C421.589 578.156 419.308 582.728 416.949 587.228C412.234 596.219 407.334 605.114 402.22 613.883C391.936 631.524 380.508 648.422 367 663.782C363.949 667.252 358.931 662.803 360.889 659.067C370.329 641.057 381.334 624.052 392.662 607.195C398.333 598.755 404 590.307 409.727 581.905C412.116 578.399 414.536 574.906 417.021 571.466L418.52 569.408M990.592 220.45C942.875 221.891 895.214 225.003 847.724 229.88C803.558 234.415 759.554 240.452 715.798 247.978C706.659 249.55 697.531 251.186 688.414 252.887L682.946 253.915C673.828 255.643 662.689 256.356 654.571 261.227C646.012 266.362 643.699 277.094 640.851 285.944C637.503 296.352 634.24 306.79 631.065 317.253C618.457 358.796 606.94 400.699 596.666 442.879C591.566 463.816 587.041 484.87 582.273 505.883C578.037 524.553 573.363 543.012 568.48 561.495C569.082 561.027 569.82 560.671 570.711 560.481C594.959 555.322 619.71 553.08 644.321 550.23L646.702 549.952C672.161 546.958 697.62 543.986 723.094 541.122L891.753 522.155C901.7 521.037 912.356 520.885 922.036 518.216C938.494 513.676 942.351 495.276 945.112 480.623L945.196 480.18C953.521 435.907 960.148 391.249 967.912 346.864M572.405 510.029C565.857 509.597 556.895 503.6 551.927 504.03C554.535 508.406 555.712 513.397 554.209 518.727C550.026 533.559 531.109 525.885 521.997 521.354C514.526 517.637 507.312 513.089 499.041 511.348C489.671 509.378 483.323 513.104 475.407 517.399C468.905 520.926 461.824 523.459 454.542 524.77C450.67 525.468 446.992 525.542 443.321 525.27C443.1 525.45 442.851 525.617 442.567 525.766L440.625 526.785C449.406 527.187 458.35 529.897 466.522 532.378C474.99 534.948 483.303 538.046 491.572 541.214L499.706 544.341C519.772 552.024 540.542 559.321 562.258 559.257C563.819 559.253 565.098 559.685 566.105 560.39M535.769 463.555C542.238 462.764 548.209 463.612 553.378 467.823C559.612 472.901 563.8 481.323 572.762 481.876C575.375 482.037 575.982 485.711 573.385 486.479C566.714 488.454 561.313 484.845 556.768 480.159L553.712 476.966C549.221 472.316 545.078 468.72 537.457 468.998C529.295 469.296 521.119 471.182 513.01 472.141C503.824 473.227 494.64 474.153 485.425 474.952C484.997 474.989 484.924 474.315 485.325 474.216L495.646 471.647M529.525 437.109L530.592 437.002C539.985 436.09 548.576 436.055 556.966 441.108L558.575 442.081C566.139 446.678 574.372 452.094 579.102 459.538C579.876 460.757 578.597 462.19 577.302 461.88C568.211 459.698 561.565 453.028 553.92 448.036C545.34 442.434 536.477 443.358 526.694 444.228C517.222 445.071 507.755 446.229 498.376 447.808C489.563 449.29 480.722 451.63 471.82 452.376L471.822 452.358C470.805 452.356 470.225 450.829 471.262 450.311C480.296 445.8 490.759 443.665 500.586 441.604M814.89 344.264C813.982 339.921 819.324 337.907 821.799 341.352L822.326 342.079C827.675 349.407 835.411 358.603 835.018 367.923C839.72 368.026 844.595 370.883 846.427 375.126C847.273 377.089 847.561 379.415 847.374 381.823C851.648 382.155 856.309 384.961 858.922 387.693C863.253 392.222 863.594 398.622 860.488 403.914C853.713 415.45 838.914 419.646 826.421 420.583L825.976 420.615C813.072 421.507 794.478 421.266 785.63 410.195C777.095 399.516 786.528 390.87 796.201 386.175C793.683 383.876 792.379 380.579 793.605 377.102C795.758 370.991 803.359 368.63 807.654 364.382C812.889 359.202 816.349 352.097 814.97 344.669M821.982 353.655C820.558 359.839 817.063 365.495 812.193 369.977C810.331 371.691 808.294 373.217 806.13 374.528L805.87 374.679C803.95 375.757 799.229 377.777 799.592 380.196C799.966 382.682 807.657 386.573 809.753 386.575C810.23 386.575 810.5 387.32 810.013 387.536C806.214 389.214 802.896 389.933 799.182 388.16C796.7 390.694 794.289 393.316 791.901 395.915C787.677 400.514 789.122 405.37 794.112 408.794C802.13 414.296 814.318 414.162 823.673 413.762C833.089 413.36 843.154 411.26 850.509 404.988L850.83 404.709C854.827 401.154 858.478 395.13 852.357 391.706C849.959 390.365 847.37 390.444 845.094 389.792C842.964 393.967 839.508 397.311 835.292 397.956C831.885 398.477 829.539 394.195 832.638 392.146L833.334 391.714C837.226 389.23 840.547 385.404 840.459 380.421C840.399 376.962 835.569 372.594 832.422 375.844L832.279 375.999C829.645 378.967 825.008 375.227 826.739 371.938L826.823 371.789M207.862 181.676C207.85 180.933 208.895 180.655 209.26 181.298C215.372 192.051 218.568 205.232 221.824 217.079C225.233 229.489 227.986 242.025 230.46 254.653C235.468 280.224 238.137 305.648 238.319 331.71C238.343 335.431 232.281 336.421 231.688 332.608C227.751 307.257 223.979 281.88 220.012 256.536C218.016 243.789 215.693 231.091 213.471 218.382M268.371 200.405C267.921 198.922 270.078 198.426 270.63 199.782C282.896 229.891 287.051 264.013 279.176 295.778C277.97 300.637 270.854 298.532 271.763 293.734M426.588 173.651C426.526 172.541 427.967 172.366 428.51 173.13C434.322 181.319 436.733 192.286 446.93 196.518C452.021 198.631 457.75 198.263 462.248 201.832C465.255 204.219 467.561 207.987 465.304 211.602C464.576 212.77 462.538 213.355 461.55 212.086C460.108 210.237 459.345 208.023 457.386 206.637C454.623 204.682 450.897 204.561 447.729 203.642C443.631 202.454 440.019 200.375 437.061 197.286M523.686 37.0674C524.285 36.7624 524.86 36.9574 525.243 37.4754C525.79 38.2134 525.723 38.9314 525.053 39.4374C525.948 41.2664 527.005 45.8484 527.156 46.5154C527.768 49.2194 528.419 51.9074 529.1 54.5934C530.474 60.0104 531.678 65.4694 533.053 70.8884C534.511 76.6324 536.248 82.3154 538.181 87.9164C538.306 88.2791 538.443 88.6493 538.587 89.025L538.807 89.5924L538.861 89.5064C539.254 88.8854 540.072 89.3194 539.975 89.9754C539.885 90.5734 539.764 91.1684 539.662 91.7664L539.865 92.3022C541.129 95.7053 541.995 99.2895 539.675 102.292C538.807 103.415 537.852 104.08 536.662 104.278C534.754 110.568 532.36 116.741 529.797 122.669L529.046 124.401C525.276 133.051 521.255 141.587 515.252 148.951C508.698 156.991 499.683 162.481 493.974 171.291C491.318 175.389 489.47 179.698 487.97 184.326L487.406 186.083C486.341 189.357 485.113 192.529 482.042 194.449C481.062 195.061 479.594 194.866 478.804 194.031C472.507 187.37 479.099 174.932 482.896 168.483C488.174 159.515 495.813 153.778 503.462 147.012C511.707 139.719 516.966 129.963 522.053 120.352C525.169 114.464 528.177 108.449 531.344 102.535C528.035 99.6111 526.976 93.8021 525.855 89.7645L525.753 89.4024C523.9 82.9364 522.428 76.3024 521.498 69.6394C520.603 63.2328 520.23 56.9184 520.466 50.4759L520.535 48.8348M535.988 67.5592C535.257 66.5572 536.467 65.4222 537.47 65.6312C543.569 66.8922 549.531 70.5835 555.004 73.5683L555.588 73.8852C559.957 76.2412 564.353 79.1272 566.647 83.7042C569.142 88.6788 568.937 94.4084 568.597 99.8144L568.564 100.32C568.147 106.803 568.08 113.539 566.708 119.905C566.006 123.163 563.055 124.081 560.532 123.311C557.53 132.79 549.097 139.774 542.937 147.254C535.083 156.79 536.561 169.665 537.382 181.15C537.714 185.8 531.93 187.122 528.951 184.641L522.086 178.939C520.943 177.987 519.801 177.034 518.662 176.076C517.687 175.256 516.721 174.429 515.762 173.591L514.33 172.327C513.695 171.759 510.894 168.63 510.075 168.5C508.092 168.185 503.379 173.413 501.766 175.053L501.561 175.257C498.525 178.234 495.782 181.437 493.227 184.834C492.757 185.458 491.838 184.94 492.174 184.219C494.464 179.315 497.126 174.626 500.287 170.238L500.925 169.364C503.028 166.53 505.851 161.526 509.563 160.689C514.096 159.668 518.622 164.213 521.92 166.736L522.128 166.894C523.697 168.071 525.248 169.269 526.796 170.475C526.634 161.924 527.714 153.284 532.129 145.915C535.242 140.718 539.906 136.869 543.897 132.403C548.34 127.43 550.66 121.318 554.682 116.139C555.2 115.473 555.914 115.114 556.687 115C556.842 110.837 557.455 106.632 557.929 102.513L558.066 101.28C558.545 96.8052 559.677 91.3392 557.486 87.1482C555.417 83.1897 550.668 80.3955 547.152 77.7097L544.28 75.4825M338.074 20.241C336.238 21.303 334.522 22.624 332.965 24.275C328.064 29.474 324.56 35.944 321.15 42.168C319.314 45.52 317.544 48.909 315.693 52.253C314.888 53.708 314.06 55.147 313.223 56.584C312.836 57.246 311.686 58.562 311.116 59.373C311.749 60.2604 312.404 61.1342 313.072 61.9986C313.327 62.3284 330.908 81.4797 337.036 88.975C346.42 100.456 354.808 112.583 361.979 125.563C369.001 138.274 374.347 151.732 380.852 164.689C384.108 171.176 387.744 177.617 392.379 183.231C392.558 183.45 392.747 183.657 392.93 183.873C394.699 179.094 399.232 173.977 401.458 171.039L401.666 170.762C406.715 163.956 412.047 157.355 417.495 150.866C422.471 144.941 427.573 139.143 432.799 133.442L434.765 131.308C438.406 127.375 443.031 121.49 448.361 118.68C447.79 117.662 447.129 116.655 446.369 115.661C441.375 109.135 434.315 104.399 427.35 100.126L422.832 97.3781C405.804 87.0013 389.042 76.1436 374.259 62.661C366.438 55.527 358.725 48.054 352.151 39.733L349.826 36.7909M366.486 15.104C358.512 15.773 349.901 15.614 342.532 18.212C349.083 24.405 355.31 31.092 361.707 37.389C362.276 33.13 363.44 28.923 364.426 24.77" transform="translate(18.9997 -5.000531)" fill="#000000" stroke="none"/></g><g transform="translate(225 0)"><g><g><path d="M252.793 0C297.565 0 351.283 21.7046 355.85 22.1387L355.973 22.1453C358.376 22.1453 367.765 29.2985 384.141 43.6049L366.404 78.1989L367.84 79.5695C374.708 86.1548 380.572 92.1572 385.201 96.8888C422.992 135.523 429.785 287.213 420.878 340.112C411.972 393.011 395.476 444.774 318.678 444.774C241.879 444.774 156.439 398.596 143.278 384.216C134.503 374.63 124.647 370.037 113.71 370.438C113.26 369.87 112.815 369.305 112.372 368.741L110.763 368.513C95.6259 366.321 84.7798 363.37 78.2251 359.662C65.4219 352.418 51.3497 314.339 51.3497 305.951C51.3497 297.646 30.3369 237.234 29.9167 230.841L29.9103 230.664C29.9103 225.319 2.45921 200.752 2.45921 192.95C2.45921 185.147 -3.07401 185.621 2.45921 158.127L4.06676 150.05C9.95497 120.778 21.4798 72.3064 65.4219 51.2442C113.71 28.0989 207.57 0 252.793 0Z" transform="translate(-7.992421 58.70615)" fill="#FFFFFF" stroke="none"/><path d="M294.952 1.14476C225.78 -7.23636 89.0586 32.3017 64.9759 57.8635C33.2369 83.9005 9.06486 144.648 1.68586 171.493C-0.0351405 179.159 -0.806141 187.687 1.16686 195.963C2.83758 206.706 8.84988 217.802 15.2437 226.989C15.2209 226.951 15.2529 226.872 15.3112 226.763L15.3959 226.613C18.083 230.297 21.3818 234.904 24.3887 239.009L25.6569 240.733C25.6519 240.764 25.6363 240.821 25.618 240.886C25.5455 241.147 25.4312 241.559 25.772 241.147L25.9069 240.973C26.1669 241.193 26.5069 241.413 26.8859 241.623L27.6159 242.633C28.2069 243.093 28.8369 243.473 29.5069 243.793C30.1569 244.153 30.8459 244.433 31.5559 244.643C31.5959 244.643 31.6269 244.643 31.6569 244.633C30.7849 278.287 38.5211 293.702 45.069 306.749C48.7185 314.021 51.9988 320.557 53.2139 329.105C54.8469 346.847 61.1629 363.303 77.2319 372.203C95.3989 382.161 124.768 394.314 139.457 381.593C148.24 393.149 159.311 403.525 171.957 411.693C173.846 413.233 175.826 414.603 177.877 415.833C180.056 417.403 182.247 418.953 184.417 420.533C186.887 421.903 189.467 423.063 192.137 424.013C192.417 424.143 192.556 424.093 192.627 423.953C193.467 424.293 194.306 424.603 195.177 424.873C196.195 425.318 195.622 423.987 195.218 423.193L195.056 422.883C195.627 423.093 196.197 423.293 196.777 423.483C197.157 423.533 197.366 423.373 197.387 422.993C197.266 422.313 196.967 421.713 196.476 421.203C196.016 420.553 195.497 419.783 194.927 419.073C195.407 419.263 195.896 419.463 196.387 419.643L196.493 419.685C197.388 419.978 196.612 418.177 196.497 418.003C196.476 417.983 196.467 417.963 196.447 417.933C196.797 418.063 197.146 418.203 197.497 418.323C198.297 418.683 198.717 418.333 198.527 417.493C198.146 416.803 197.697 416.153 197.186 415.563C196.707 414.933 196.167 414.363 195.567 413.853L193.527 412.873L193.391 412.745L193.257 412.623C193.317 412.523 193.356 412.423 193.356 412.343C187.491 407.509 177.881 404 171.616 398.543C169.927 397.363 168.297 396.113 166.686 394.843C151.957 381.107 140.56 363.67 131.737 345.112C130.573 344.178 129.592 345.583 130.826 347.303C130.6 347.187 130.383 346.609 130.124 345.922C129.557 344.416 128.793 342.384 127.311 343.532C127.302 343.593 127.294 343.648 127.287 343.697C127.245 343.98 127.229 344.09 127.255 344.188C127.298 344.355 127.462 344.491 127.826 345.403C127.825 345.511 127.824 345.603 127.824 345.682C127.821 345.965 127.819 346.085 127.848 346.197C127.904 346.417 128.074 346.607 128.567 347.922L128.737 348.383C128.587 348.403 128.417 348.453 128.266 348.543C128.655 348.254 123.731 341.214 124.606 346.073C124.564 346.059 124.552 346.054 124.539 346.054C124.533 346.053 124.527 346.055 124.516 346.056C124.502 346.059 124.48 346.062 124.441 346.066L124.286 346.073C124.313 345.574 121.762 344.607 122.667 346.983C122.577 346.963 122.515 346.889 122.438 346.799C122.231 346.556 121.922 346.194 120.697 346.443C81.5229 354.093 71.6599 274.957 109.887 266.673C110.137 266.853 110.536 266.823 110.646 266.483C119.636 263.959 132.39 265.438 138.587 274.963C138.28 275.907 143.464 279.537 140.257 274.353C140.507 274.603 140.757 274.783 141.007 274.853C141.421 276.754 146.1 280.48 142.917 274.563C142.947 274.563 142.987 274.553 143.027 274.543C143.419 276.329 148.398 278.776 144.826 273.683C160.7 268.433 158.187 253.529 155.802 239.385C155.006 234.664 154.225 230.028 154.146 225.863C158.396 203.789 158.557 190.282 180.627 175.303C196.104 161.186 196.186 135.831 214.266 122.973C232.692 108.85 256.307 106.499 279.141 105.031L287.561 104.506C314.516 102.994 340.797 101.399 367.677 99.9335C369.516 100.543 371.356 101.063 373.217 101.533C378.636 103.113 384.136 104.133 389.707 104.583C391.697 107.543 393.547 110.583 395.277 113.703C397.786 117.863 400.067 122.163 402.106 126.583C423.072 172.469 427.338 224.568 427.846 275.258L427.873 278.359C429.612 436.884 322.225 487.363 248.226 430.473C247.586 430.246 246.859 429.399 246.059 428.468C244.748 426.941 243.244 425.188 241.616 425.573C241.322 424.346 237.133 422.478 239.377 425.623C239.333 425.694 239.292 425.759 239.254 425.819C238.842 426.468 238.789 426.552 239.755 427.499L240.837 428.543C240.766 428.683 240.747 428.813 240.766 428.943C239.606 427.843 238.467 426.713 237.346 425.533L237.012 425.371C234.491 424.2 235.502 426.034 237.188 427.832L237.246 427.892L237.059 427.742C236.694 427.458 236.226 427.135 235.606 426.763C235.467 426.613 235.326 426.483 235.197 426.333C232.27 425.813 234.84 428.474 236.823 430.309L237.877 431.263C237.856 431.393 237.866 431.513 237.917 431.633C236.797 430.553 235.697 429.453 234.627 428.323C232.097 429.226 236.684 433.118 240.421 436.289C241.995 437.624 243.417 438.83 244.096 439.633C284.463 474.319 340.731 473.379 376.652 445.404C436.114 401.256 443.6 319.705 440.606 251.433C439.706 215.498 433.561 178.844 423.686 143.623C418.035 129.628 411.054 114.914 402.237 101.903C403.286 99.3635 404.106 96.9135 404.457 94.2535C407.246 86.5525 405.706 76.8925 401.579 69.0735C410.462 51.5634 388.198 39.3046 372.762 30.8053C368.858 28.656 365.391 26.7471 362.975 25.0545C348.636 14.8035 330.71 8.66647 313.356 4.61347C307.987 3.17347 302.547 2.11347 297.027 1.41347L294.952 1.14476ZM156.839 33.4435C201.601 20.9345 247.738 10.6005 294.646 14.6335C298.377 14.7135 302.047 15.2035 305.667 16.0935C323.142 19.7765 341.23 24.9985 357.008 34.6495C364.927 37.5245 372.615 40.9075 379.392 45.9865C369.953 44.0345 360.964 39.8325 351.532 38.9945C350.641 38.6935 349.75 38.3955 348.859 38.1005C287.723 32.0575 199.849 49.1955 167.661 88.7365C132.051 131.723 110.594 207.831 109.657 252.943C63.9789 259.716 60.1489 331.365 97.2069 352.413C100.458 355.065 105.481 357.741 110.226 358.793C110.707 358.893 111.197 358.973 111.686 359.053C113.161 359.496 114.81 359.973 117.427 360.133L117.924 360.171C120.24 360.312 122.503 360.009 124.707 359.253C125.326 359.113 125.297 358.703 125.076 358.293C125.417 358.203 125.747 358.123 126.076 358.013C126.887 359.713 127.737 361.393 128.616 363.053C128.657 363.123 128.697 363.183 128.726 363.243C127.639 363.768 127.866 364.364 128.613 365.592L129.346 366.783C121.167 368.545 112.049 366.058 103.699 362.907L102.614 362.492C76.146 353.704 74.3219 342.648 72.0485 328.869C70.8792 321.782 69.5911 313.975 64.7709 305.385C41.5398 267.317 43.145 239.43 44.824 210.262C45.509 198.36 46.2064 186.246 45.2339 173.139C43.0119 173.481 43.7919 174.34 42.7609 176.962C37.8209 193.745 34.6599 210.664 32.8059 228.093C14.9859 210.554 8.94086 182.231 20.7659 157.113C34.3079 123.306 49.8259 86.6905 79.8769 63.6735C101.386 48.1287 128.299 41.5935 153.751 34.331L156.839 33.4435ZM223.167 35.1131C215.938 30.6631 195.125 25.2621 210.925 36.6171C223.019 46.7931 228.094 39.4581 223.167 35.1131ZM165.699 48.5083C155.76 37.6549 182.359 48.0521 186.343 50.9381L186.457 51.0233C189.43 53.1163 188.827 57.6243 186.034 58.9483C180.277 59.0576 175.622 55.6122 171.007 52.1967C169.251 50.897 167.501 49.6017 165.699 48.5083ZM140.627 75.682C134.193 73.5444 119.499 68.6624 120.798 73.5932C129.818 78.5722 139.693 83.0132 148.7 88.8992C153.093 91.5922 160.185 90.3572 156.681 84.3952C153.691 80.0803 147.959 78.3519 142.959 76.4889L142.176 76.1932C141.743 76.0526 141.22 75.879 140.627 75.682ZM118.811 125.522L115.534 123.39C97.8503 111.816 72.8511 94.2793 117.186 112.423C122.239 114.59 128.953 115.872 131.71 120.684C136.041 129.553 124.643 130.149 118.811 125.522ZM102.079 162.351C104.084 150.029 79.0213 140.725 70.5363 143.833C66.6403 145.531 68.2203 149.397 71.8903 151.218C78.633 154.887 84.2971 158.575 90.5774 162.781L94.1863 165.204C96.9513 166.801 100.885 165.18 102.079 162.351ZM107.566 289.183C109.2 288.296 109.623 288.569 109.889 288.741C110.023 288.828 110.117 288.889 110.306 288.763C127.972 287.322 147.021 302.789 156.896 315.683C156.182 316.425 154.355 314.478 153.766 313.851C153.712 313.792 153.668 313.746 153.636 313.713C153.586 313.763 153.526 313.803 153.466 313.823L153.741 314.211C157.744 319.955 149.809 313.196 149.066 311.803C148.936 311.873 148.806 311.913 148.656 311.883C149.285 312.5 151.206 314.109 151.536 315.253L152.045 315.677C156.848 319.79 156.449 322.883 150.997 317.043C151.126 317.313 151.176 317.563 151.086 317.763L151.274 317.888C153.955 319.762 156.16 324.985 150.556 319.623C151.01 322.672 147.392 318.76 145.674 316.902C145.185 316.374 144.85 316.012 144.806 316.023C134.188 307.688 118.555 299.582 105.236 298.493L104.778 298.441C102.334 298.127 101.178 297.401 102.036 295.803C99.0262 295.087 99.7312 293.605 101.156 293.653C99.0332 292.257 100.944 290.922 102.176 291.443C101.58 289.792 103.087 290.078 104.14 290.278C104.583 290.362 104.944 290.43 105.036 290.333C106.23 288.492 106.833 288.938 107.189 289.2C107.358 289.325 107.472 289.409 107.566 289.183ZM238.524 429.117L238.123 428.76L238.475 429.201C238.66 429.429 238.849 429.634 239.157 429.843C239.137 429.773 239.137 429.703 239.146 429.623C238.942 429.468 238.733 429.297 238.524 429.117Z" transform="translate(-14.99996 50.99953)" fill="#000000" fill-rule="evenodd" stroke="none"/></g></g><g transform="translate(159 186)"><g><path d="M175.373 49.5872C175.699 49.4437 175.991 49.2049 176.203 48.8583C178.978 44.3099 179.267 38.8813 178.039 33.5637C176.563 27.172 172.899 20.9588 168.944 16.7559C163.959 11.4582 157.895 7.75374 151.246 4.94731C150.762 4.74287 150.267 4.53098 149.763 4.31514C142.964 1.40541 134.597 -2.01031 127.865 1.47064C125.161 2.86951 123.673 5.20381 123.256 7.7496C122.814 10.4534 123.597 13.4099 125.462 15.7216C128.557 19.5594 133.339 20.3533 138.087 21.0465C139.602 21.2677 141.106 21.486 142.53 21.8229C147.429 22.9821 152.604 24.4361 157.104 26.7244C166.253 31.3762 170.54 38.5898 172.747 48.2853C172.837 48.6781 173.037 48.9988 173.3 49.2406C173.575 49.4928 173.921 49.6579 174.285 49.7192C174.651 49.7808 175.032 49.7375 175.373 49.5872ZM58.3942 19.1934C55.0693 22.4329 51.1339 22.9347 47.1526 23.381C44.9405 23.6313 43.1746 23.8331 41.4369 24.2252C36.6605 25.3034 31.9393 26.9272 27.6319 29.2659C23.1292 31.7106 18.2224 34.659 14.6922 38.4361C13.8528 39.3349 13.0615 40.278 12.2691 41.2232C11.5465 42.0851 10.8505 42.9149 10.1169 43.7149C9.27449 44.6339 8.47449 45.597 7.67875 46.5576C7.1867 47.3681 7.0895 47.5675 6.99041 47.775C6.8413 48.0869 6.66786 48.4359 6.46976 48.8103C6.19845 49.323 5.88066 49.8843 5.54784 50.3932C4.9941 51.3234 4.69697 51.5796 4.44022 51.6942C4.01419 51.8839 3.61015 51.9774 3.21817 51.9268C2.85064 51.8793 2.50438 51.7028 2.16244 51.4138C0.455387 49.9715 -0.0480658 47.6046 0.00353523 45.092C0.0818393 41.2793 1.48813 37.0578 2.78452 34.4628C5.79888 28.4331 9.97938 22.1649 15.0062 17.6646C20.7422 12.5276 27.0177 8.63869 34.2256 5.95894C38.705 4.29304 43.8913 2.76391 48.7713 2.95706C52.284 3.09609 55.6373 4.14026 58.4066 6.74782C60.1072 8.34853 60.9235 10.6254 60.9235 12.9006C60.9235 15.2211 60.0757 17.5554 58.3942 19.1934ZM164.634 78.3299C166.478 78.8824 167.779 78.6212 169.441 77.7551C170.719 77.0896 171.589 76.0387 172.088 74.8117C172.599 73.5559 172.706 72.1077 172.454 70.7659C171.405 65.1948 168.042 60.2513 163.503 57.0672C159.091 53.9728 153.589 52.5435 148.048 53.7341C144.003 54.6036 138.007 58.4424 134.85 63.1243C133.504 65.1203 132.671 67.2595 132.581 69.3723C132.495 71.387 133.008 73.4183 135.676 76.096C135.935 76.177 136.208 76.2208 136.477 76.2208C137.138 76.2208 137.821 75.9439 138.274 75.5441C139.469 74.4935 140.311 73.1636 141.178 71.7329C141.641 70.9679 142.102 70.1976 142.69 69.5195C144.449 67.4927 147.002 65.7736 149.683 65.3262C152.167 64.911 154.406 65.6469 156.181 67.0355C158.256 68.6601 159.713 71.1522 160.252 73.8146C160.472 74.8933 161.036 75.8657 161.818 76.6477C162.607 77.4367 163.615 78.0237 164.634 78.3299ZM46.1749 69.1109C43.7479 67.5587 40.8928 67.0259 37.7287 68.4655C35.256 69.5899 30.9192 73.3385 27.9011 78.2662C25.8363 81.6374 24.3721 85.5922 24.6769 89.7117C24.7477 90.6684 24.3942 91.3738 23.8366 91.8954C23.3962 92.3073 22.7601 92.61 22.013 92.7047C21.3786 92.785 20.6686 92.7125 20.0913 92.5324C18.9931 92.1896 18.4119 91.4772 18.1929 90.8957C16.0797 85.2836 16.9901 79.0208 19.3585 73.3707C22.5547 65.7456 28.3592 59.3585 32.1622 57.2993C38.6698 53.7742 46.347 53.612 52.8639 57.2031C58.4114 60.2596 61.8802 65.1942 65.3301 70.2242C66.0635 71.2934 66.7914 72.3548 67.5436 73.3976C69.0513 75.487 69.2013 77.5593 68.6175 79.3363C67.9707 81.3049 66.3215 82.9663 64.2592 83.8357C62.353 84.6393 60.1407 84.7524 58.1831 83.9268C56.5293 83.2293 55.0117 81.8695 54.0513 79.5625C52.434 75.6771 49.7393 71.3904 46.1749 69.1109ZM127.748 115.98C135.872 104.601 124.366 93.898 116.814 89.3079C114.836 87.8879 116.406 83.1842 120.634 83.9112C159.031 90.5082 139.136 156.649 90.112 120.354C84.2754 115.645 91.3434 105.275 97.6342 109.307C97.9532 109.552 98.2876 109.81 98.6364 110.08C105.704 115.544 118.636 125.542 127.748 115.98ZM117.042 185.1C109.675 187.233 101.768 187.424 94.2589 185.221C87.4481 183.222 80.4549 178.823 75.4423 173.003C70.9894 167.832 68.1055 161.549 68.2187 154.842C68.2316 154.076 68.5055 153.436 68.9268 152.94C69.3804 152.406 70.014 152.039 70.6926 151.88C71.3906 151.716 72.1285 151.774 72.7568 152.059C73.3256 152.318 73.8129 152.757 74.1176 153.398C74.8879 154.41 75.6553 155.407 76.4257 156.376C82.6196 164.024 88.618 169.74 97.9319 171.79C102.985 172.903 108.032 172.409 112.663 170.712C117.62 168.895 122.102 165.7 125.613 161.612C127.2 159.765 129.074 159.011 130.905 158.998C132.982 158.983 135.034 159.948 136.579 161.49C138.099 163.006 139.116 165.065 139.209 167.219C139.29 169.11 138.673 171.085 137.032 172.848C131.626 178.652 124.621 182.904 117.042 185.1Z" transform="translate(54.00004 55.05923)" fill="#000000" fill-rule="evenodd" stroke="none"/></g></g><g transform="translate(123 338)"/><g transform="translate(47 241)"><g><path d="M400.241 22.4717C406.555 19.4817 413.812 19.6607 420.603 20.5487C434.349 26.9267 404.861 34.3147 401.349 27.5287C404.801 52.9717 394.935 94.8897 366.724 108.133C334.13 124.07 298.773 99.8287 300.056 60.9787C293.067 59.2817 297.925 39.7137 300.739 31.7647C288.447 29.8527 276.738 28.7257 264.894 32.4797C271.42 50.8857 248.187 106.288 225.854 117.325C208.541 129.283 169.496 123.951 153.944 105.365C142.844 91.1707 137.3 58.2287 143.442 35.3387C143.388 35.3147 143.332 35.2967 143.279 35.2697C142.912 38.8697 118.056 38.4687 119.298 32.3037C83.5946 32.9447 49.0266 38.4207 13.6856 42.2807C9.41771 42.6777 9.20869 45.7037 9.00443 48.6607C8.82951 51.1931 8.65807 53.675 5.94363 54.4117C-4.52237 54.6617 0.226628 36.3637 9.44663 34.6657C18.2509 33.7459 27.1162 32.5506 36.011 31.3514C64.1217 27.5615 92.5269 23.7319 120.232 28.4287C124.112 23.4993 131.1 25.2524 136.795 26.6809C138.398 27.083 139.898 27.4593 141.198 27.6537C145.902 -0.109269 221.595 1.54173 246.677 12.8057C273.452 9.72473 301.309 7.96173 327.861 5.72573C344.673 0.333732 364.25 -2.44827 381.745 2.80973C384.166 2.67632 384.439 3.06209 384.978 3.82285C385.074 3.95736 385.177 4.10358 385.303 4.26073C392.194 7.30073 398.297 14.2087 400.241 22.4717ZM391.09 53.2827C381.556 117.772 315.002 124.904 303.177 60.8817C305.075 60.0507 306.44 58.4147 306.155 55.2387C306.088 41.2867 310.419 26.5407 323.005 18.7817C336.011 10.7757 351.232 9.98173 366.283 10.1837C395.005 9.49973 394.401 33.5067 391.09 53.2827ZM264.265 30.6657C272.34 25.1737 283.744 24.8557 292.758 25.2357C295.861 25.4177 300.059 25.2717 302.99 26.8347C306.149 20.6497 311.009 15.2997 316.233 11.7387C313.192 11.9693 310.141 12.2092 307.085 12.4496C288.207 13.9342 269.092 15.4374 250.449 14.8917C256.277 18.3047 262.045 24.6877 264.265 30.6657ZM253.026 60.1197C228.031 146.156 165.64 108.656 158.838 97.6297C146.569 79.3837 144.261 35.0297 154.948 23.1707C167.469 14.393 184.251 14.6491 199.84 14.8869C203.297 14.9396 206.695 14.9915 209.975 14.9437C243.176 15.3917 266.756 25.3237 253.026 60.1197Z" transform="translate(-1.999528 9.999668)" fill="#000000" fill-rule="evenodd" stroke="none"/></g></g></g></g></svg>