<svg xmlns="http://www.w3.org/2000/svg" viewBox="0 0 48 48" width="48" height="48">
  <!-- Folder back -->
  <path d="M4 12 L4 42 L44 42 L44 16 L22 16 L18 12 Z" fill="#f5d647" stroke="#c4a000" stroke-width="1"/>
  <!-- Folder tab -->
  <path d="M4 12 L18 12 L22 16 L44 16 L44 14 L22 14 L18 10 L4 10 Z" fill="#fce94f" stroke="#c4a000" stroke-width="0.5"/>
  <!-- Folder front -->
  <path d="M4 18 L44 18 L44 42 L4 42 Z" fill="#f5d647" stroke="#c4a000" stroke-width="0.5"/>
  <!-- Folder highlight -->
  <path d="M6 20 L42 20 L42 24 L6 24 Z" fill="rgba(255,255,255,0.2)"/>
  <!-- Document peek -->
  <rect x="16" y="8" width="16" height="12" fill="white" stroke="#aaa" stroke-width="0.5" rx="1"/>
  <line x1="19" y1="11" x2="29" y2="11" stroke="#ccc" stroke-width="0.5"/>
  <line x1="19" y1="13" x2="29" y2="13" stroke="#ccc" stroke-width="0.5"/>
  <line x1="19" y1="15" x2="26" y2="15" stroke="#ccc" stroke-width="0.5"/>
</svg>
