<svg xmlns="http://www.w3.org/2000/svg" viewBox="0 0 48 48" width="48" height="48">
  <!-- Bin body -->
  <path d="M12 14 L14 44 L34 44 L36 14 Z" fill="#c0c8d0" stroke="#555" stroke-width="1"/>
  <!-- Bin lines -->
  <line x1="19" y1="18" x2="19.5" y2="40" stroke="#999" stroke-width="1"/>
  <line x1="24" y1="18" x2="24" y2="40" stroke="#999" stroke-width="1"/>
  <line x1="29" y1="18" x2="28.5" y2="40" stroke="#999" stroke-width="1"/>
  <!-- Lid -->
  <rect x="10" y="10" width="28" height="4" rx="1" fill="#a8b0b8" stroke="#555" stroke-width="1"/>
  <!-- Handle -->
  <rect x="20" y="6" width="8" height="5" rx="2" fill="none" stroke="#555" stroke-width="1.5"/>
  <!-- Recycle arrows -->
  <g transform="translate(24,29) scale(0.5)" fill="#4CAF50">
    <path d="M-8,-6 L-2,-6 L-5,-12 Z"/>
    <path d="M2,6 L8,6 L5,12 Z"/>
    <path d="M-3,0 A6,6 0 0,1 3,0" fill="none" stroke="#4CAF50" stroke-width="2"/>
    <path d="M3,0 A6,6 0 0,1 -3,0" fill="none" stroke="#4CAF50" stroke-width="2"/>
  </g>
</svg>
